<svg width="59" height="63" viewBox="0 0 59 63" fill="none" xmlns="http://www.w3.org/2000/svg">
<path d="M37.6875 20.9375V0H0V62.8125H16.75V50.25H20.9375V62.8125H58.625V20.9375H37.6875ZM10.4688 54.4375H6.28125V50.25H10.4688V54.4375ZM10.4688 43.9688H6.28125V39.7812H10.4688V43.9688ZM10.4688 33.5H6.28125V29.3125H10.4688V33.5ZM10.4688 23.0312H6.28125V18.8438H10.4688V23.0312ZM10.4688 12.5625H6.28125V8.375H10.4688V12.5625ZM27.2188 8.375H31.4062V12.5625H27.2188V8.375ZM20.9375 43.9688H16.75V39.7812H20.9375V43.9688ZM20.9375 33.5H16.75V29.3125H20.9375V33.5ZM20.9375 23.0312H16.75V18.8438H20.9375V23.0312ZM20.9375 12.5625H16.75V8.375H20.9375V12.5625ZM31.4062 54.4375H27.2188V50.25H31.4062V54.4375ZM31.4062 43.9688H27.2188V39.7812H31.4062V43.9688ZM31.4062 33.5H27.2188V29.3125H31.4062V33.5ZM31.4062 23.0312H27.2188V18.8438H31.4062V23.0312ZM54.4375 58.625H37.6875V54.4375H41.875V50.25H37.6875V43.9688H41.875V39.7812H37.6875V33.5H41.875V29.3125H37.6875V25.125H54.4375V58.625Z" fill="black"/>
</svg>
