<svg width="55" height="54" viewBox="0 0 55 54" fill="none" xmlns="http://www.w3.org/2000/svg">
<path d="M44.6667 27.9167C46.6208 27.9167 48.4913 28.2796 50.25 28.8938V16.75L33.5 0H5.58333C2.48458 0 0 2.48458 0 5.58333V44.6667C0 46.1475 0.588242 47.5676 1.63532 48.6147C2.6824 49.6618 4.10254 50.25 5.58333 50.25H28.8938C28.2796 48.4913 27.9167 46.6208 27.9167 44.6667C27.9167 35.4263 35.4263 27.9167 44.6667 27.9167ZM30.7083 4.1875L46.0625 19.5417H30.7083V4.1875ZM54.4375 39.7813L41.1771 53.0417L33.5 44.6667L36.7383 41.4283L41.1771 45.8671L51.1992 35.845L54.4375 39.7813Z" fill="black"/>
</svg>
