<svg width="59" height="67" viewBox="0 0 59 67" fill="none" xmlns="http://www.w3.org/2000/svg">
<path fill-rule="evenodd" clip-rule="evenodd" d="M8.93333 6.7C8.93333 4.92305 9.63922 3.21888 10.8957 1.96238C12.1522 0.705891 13.8564 0 15.6333 0L43.1078 0L58.0667 9.9696V51.3667C58.0667 53.1436 57.3608 54.8478 56.1043 56.1043C54.8478 57.3608 53.1436 58.0667 51.3667 58.0667H49.1333V60.3C49.1333 62.077 48.4274 63.7811 47.1709 65.0376C45.9145 66.2941 44.2103 67 42.4333 67H6.7C4.92305 67 3.21888 66.2941 1.96238 65.0376C0.705891 63.7811 0 62.077 0 60.3V15.6333C0 13.8564 0.705891 12.1522 1.96238 10.8957C3.21888 9.63922 4.92305 8.93333 6.7 8.93333H8.93333V6.7ZM8.93333 13.4H6.7C6.10768 13.4 5.53963 13.6353 5.1208 14.0541C4.70196 14.473 4.46667 15.041 4.46667 15.6333V60.3C4.46667 60.8923 4.70196 61.4604 5.1208 61.8792C5.53963 62.298 6.10768 62.5333 6.7 62.5333H42.4333C43.0257 62.5333 43.5937 62.298 44.0125 61.8792C44.4314 61.4604 44.6667 60.8923 44.6667 60.3V58.0667H15.6333C13.8564 58.0667 12.1522 57.3608 10.8957 56.1043C9.63922 54.8478 8.93333 53.1436 8.93333 51.3667V13.4Z" fill="black"/>
<path d="M27.7758 13.0359C30.5396 11.3222 32.9545 12.0122 34.4039 13.1128C34.9983 13.5628 35.2964 13.7878 35.4708 13.7878C35.6452 13.7878 35.9433 13.5628 36.5377 13.1128C37.987 12.0122 40.4001 11.3222 43.1657 13.0359C46.7957 15.2859 47.617 22.7034 39.247 28.9621C37.6514 30.1546 36.8545 30.7509 35.4708 30.7509C34.087 30.7509 33.2902 30.1546 31.6964 28.9621C23.3246 22.7034 24.1458 15.2841 27.7758 13.0359Z" stroke="white" stroke-width="1.5" stroke-linecap="round"/>
<path d="M19.5334 34.501H24.024C24.5753 34.501 25.119 34.6247 25.6122 34.8647L29.4409 36.7172C29.934 36.9553 30.4778 37.0791 31.0309 37.0791H32.9846C34.8746 37.0791 36.4084 38.5622 36.4084 40.3922C36.4084 40.4672 36.3577 40.5309 36.2846 40.5516L31.5203 41.8697C30.6654 42.1059 29.7538 42.0232 28.9553 41.6372L24.8622 39.6572" stroke="white" stroke-width="1.5" stroke-linecap="round" stroke-linejoin="round"/>
<path d="M36.4084 39.1883L45.0202 36.5426C45.7699 36.3126 46.5731 36.3252 47.3153 36.5788C48.0574 36.8323 48.7004 37.3138 49.1527 37.9545C49.8445 38.9108 49.5633 40.2832 48.5545 40.8645L34.464 48.9963C34.0234 49.2513 33.5355 49.4138 33.0301 49.4741C32.5246 49.5344 32.0122 49.4911 31.524 49.3469L19.5334 45.7882" stroke="white" stroke-width="1.5" stroke-linecap="round" stroke-linejoin="round"/>
</svg>
