<svg width="67" height="67" viewBox="0 0 67 67" fill="none" xmlns="http://www.w3.org/2000/svg">
<path d="M53.7833 59.3198L38.499 44.0354L44.3615 38.1729L59.6458 53.4573L53.7833 59.3198ZM15.2583 59.3198L9.39583 53.4573L28.6583 34.1948L23.9125 29.449L21.9583 31.4031L18.399 27.8438V33.5667L16.4448 35.5208L8 27.076L9.95417 25.1219H15.6771L12.1875 21.6323L22.0979 11.7219C23.0285 10.7913 24.0288 10.1167 25.099 9.69792C26.1691 9.27917 27.2625 9.06979 28.3792 9.06979C29.4958 9.06979 30.5892 9.27917 31.6594 9.69792C32.7295 10.1167 33.7299 10.7913 34.6604 11.7219L28.2396 18.1427L31.7292 21.6323L29.775 23.5865L34.5208 28.3323L40.8021 22.051C40.616 21.5392 40.4652 21.0042 40.3498 20.4458C40.2344 19.8875 40.1758 19.3292 40.174 18.7708C40.174 16.0257 41.1166 13.7105 43.0019 11.8252C44.8872 9.93986 47.2015 8.99814 49.9448 9C50.6427 9 51.3062 9.06979 51.9353 9.20938C52.5643 9.34896 53.2036 9.55834 53.8531 9.8375L46.9438 16.7469L51.9688 21.7719L58.8781 14.8625C59.2038 15.5139 59.4253 16.1532 59.5425 16.7804C59.6598 17.4076 59.7175 18.0711 59.7156 18.7708C59.7156 21.516 58.7739 23.8312 56.8905 25.7165C55.007 27.6018 52.6918 28.5435 49.9448 28.5417C49.3865 28.5417 48.8281 28.4951 48.2698 28.4021C47.7115 28.309 47.1764 28.1462 46.6646 27.9135L15.2583 59.3198Z" fill="black"/>
</svg>
