<svg width="139" height="62" viewBox="0 0 139 62" fill="none" xmlns="http://www.w3.org/2000/svg">
<path fill-rule="evenodd" clip-rule="evenodd" d="M26.4668 5.20907C26.6168 5.23084 26.8385 5.23034 26.9602 5.20758C27.0814 5.18482 26.9586 5.16651 26.6875 5.167C26.4163 5.16799 26.3168 5.1868 26.4668 5.20907ZM23.186 5.35158C14.8504 6.50063 7.92976 12.5007 6.07601 20.1858C5.98865 20.5485 5.89523 20.932 5.86947 21.0384C5.5372 22.3854 5.40237 25.8256 5.63062 27.1093C6.17852 30.1888 6.92688 32.2003 8.71095 35.3912C9.67091 37.1088 12.0034 40.6574 13.2638 42.3186C13.4319 42.5408 13.7698 42.997 14.0137 43.3325C15.5346 45.4238 20.7399 51.9984 22.9891 54.6682C23.1789 54.8938 23.6642 55.4762 24.0677 55.9632C24.7842 56.8277 24.9973 56.9672 25.2377 56.7317C25.4134 56.5595 25.4089 39.8052 25.2326 39.6682C25.165 39.6157 24.71 39.544 24.2217 39.5093C23.3557 39.4475 21.6574 39.1367 21.2631 38.9679C21.1545 38.9214 20.7773 38.7888 20.4248 38.674C18.46 38.0317 15.771 36.176 14.2717 34.4277C8.75337 27.9936 9.57143 19.0184 16.1871 13.4033C18.0479 11.8238 21.1727 10.552 23.901 10.2625C25.5099 10.0918 25.3559 10.3605 25.3559 7.72193C25.3559 6.09783 25.323 5.43571 25.2377 5.35208C25.1014 5.21847 24.1515 5.21847 23.186 5.35158ZM32.7093 37.7625C32.6042 37.8402 32.5623 37.904 32.6169 37.904C32.6709 37.904 32.8017 37.8402 32.9067 37.7625C33.0123 37.6843 33.0537 37.6205 32.9996 37.6205C32.9451 37.6205 32.8148 37.6843 32.7093 37.7625ZM29.942 38.9219C29.7249 38.9917 29.6365 39.0506 29.7451 39.0521C29.8531 39.0541 30.0753 38.9957 30.2379 38.9224C30.6106 38.7552 30.4586 38.7547 29.942 38.9219Z" fill="#409DF3"/>
<path fill-rule="evenodd" clip-rule="evenodd" d="M26.0122 5.41303C25.8708 5.56594 25.8491 5.87324 25.8491 7.71558C25.8491 10.2537 25.839 10.2304 26.9338 10.2725C31.2852 10.4407 36.143 13.5534 38.6083 17.7527C41.7305 23.0709 41.0124 29.5777 36.7586 34.5129C35.7027 35.7381 33.2859 37.6428 32.3118 38.0184C32.0391 38.1233 31.7492 38.2658 31.6679 38.3346C31.5866 38.4034 31.3427 38.5147 31.1256 38.5815C30.9084 38.6484 30.614 38.7612 30.4711 38.832C30.0646 39.0334 28.0564 39.4297 27.1393 39.4896C26.4682 39.5332 26.2652 39.5841 26.0794 39.7558L25.8491 39.9676V48.0402V56.1122L26.1142 56.3834C26.2597 56.5323 26.4278 56.6546 26.4879 56.6546C26.6758 56.6546 27.872 55.3289 29.1582 53.6954C29.3723 53.4232 30.15 52.4661 30.8862 51.569C33.8943 47.9026 36.9277 44.0046 38.3235 42.0119C38.6956 41.4804 39.186 40.7846 39.4122 40.4655C42.3269 36.3621 44.5149 32.0153 45.2744 28.8191C47.3695 19.9983 42.4294 10.6441 33.6656 6.83721C32.0396 6.13056 31.0887 5.85493 28.4795 5.33187C27.6292 5.16115 26.2011 5.20816 26.0122 5.41303ZM32.2103 18.2673C31.1024 18.781 30.8221 20.3586 31.7103 21.0811C31.8729 21.2132 31.9224 21.4735 31.7851 21.4735C31.6492 21.4735 31.266 21.8669 31.3195 21.9515C31.3473 21.9956 31.3038 22.0851 31.223 22.1509C30.9458 22.3766 31.1852 22.9234 31.5609 22.9234C31.7396 22.9234 32.5471 22.0371 32.5516 21.8362C32.5602 21.4621 33.3682 21.618 33.5661 22.0317C34.264 23.4895 35.4158 24.2204 35.4158 23.2045C35.4158 22.9289 34.6942 21.8679 34.2645 21.5121C34.0463 21.3315 34.0357 21.2934 34.168 21.1637C35.6087 19.7519 34.0337 17.4216 32.2103 18.2673ZM26.4162 18.9893C26.0385 19.2956 26.0693 19.4842 26.6884 20.6723C27.9028 23.0031 31.062 26.2488 32.6193 26.7659C33.4379 27.0376 33.7014 26.0024 32.95 25.4655C30.2914 23.5662 28.9633 22.0708 27.6044 19.4441C27.2257 18.7122 26.907 18.5905 26.4162 18.9893ZM30.8792 24.2283C31.063 24.4144 31.1912 24.5663 31.1645 24.5663C31.1372 24.5663 30.9645 24.4144 30.7802 24.2283C30.5964 24.0423 30.4681 23.8899 30.4949 23.8899C30.5221 23.8899 30.6948 24.0423 30.8792 24.2283ZM34.7871 25.4759C33.9004 25.799 33.298 26.5725 33.1813 27.5379L33.1222 28.0278L32.9011 27.7759C32.5844 27.4152 31.5341 27.6453 29.6329 28.4915C29.5713 28.5187 29.1971 28.1689 28.8017 27.7136C28.0028 26.7946 27.6155 26.6378 27.2848 27.101C27.0525 27.4256 27.0802 27.4934 27.7721 28.2911C28.5538 29.1927 28.5533 29.1655 27.8099 29.8009C26.2637 31.1241 25.8744 32.0203 26.6995 32.3583C27.1287 32.5335 27.2974 32.4488 27.766 31.8233C28.1781 31.2736 29.1592 30.3655 29.3415 30.3655C29.5405 30.3655 31.0407 32.3974 31.3018 33.0204C31.7295 34.0403 32.8682 34.113 32.6097 33.104C32.5329 32.8041 31.4533 30.9979 30.8994 30.2418C30.4363 29.6109 30.5009 29.5282 31.7861 29.1091C32.9263 28.7369 33.1465 28.6063 33.1495 28.3C33.151 28.1629 33.2187 28.2391 33.3525 28.5291C34.3731 30.7416 37.5276 30.4229 37.9281 28.0674C38.2043 26.4418 36.3455 24.9078 34.7871 25.4759ZM110.406 28.7622C106.566 29.4822 104.126 32.1321 103.814 35.9227C103.246 42.8294 111.243 46.7155 117.557 42.6017L118.263 42.142V38.8621V35.5818L115.033 35.6075L111.803 35.6327V36.9377V38.2426L113.475 38.2693C115.434 38.3005 115.301 38.2104 115.301 39.499C115.301 40.653 115.315 40.6273 114.511 40.9821C109.848 43.0417 105.361 38.5504 107.61 34.0744C109.023 31.2627 113.116 30.5862 115.681 32.7408C116.178 33.1575 116.031 33.2436 117.165 31.8664C118.078 30.7574 118.087 30.8618 117.015 30.1107C115.285 28.8983 112.6 28.3505 110.406 28.7622ZM125.319 32.7403C122.536 33.2817 120.626 35.5674 120.631 38.3529C120.644 45.9113 132.366 46.179 132.731 38.6291C132.925 34.601 129.547 31.9174 125.319 32.7403ZM127.885 35.4486C129.154 35.9682 129.896 37.5057 129.605 39.016C128.902 42.6661 123.837 42.1133 123.841 38.3876C123.843 36.0914 125.866 34.6217 127.885 35.4486Z" fill="#8AD4FF"/>
<path fill-rule="evenodd" clip-rule="evenodd" d="M30.7802 24.2281C30.9645 24.4142 31.1372 24.5661 31.1645 24.5661C31.1912 24.5661 31.063 24.4142 30.8792 24.2281C30.6948 24.0421 30.5221 23.8896 30.4949 23.8896C30.4681 23.8896 30.5964 24.0421 30.7802 24.2281ZM51.4921 36.4604V44.0049L56.103 43.9698C61.1452 43.9307 61.177 43.9277 62.5111 43.3191C65.4668 41.9711 65.6248 37.6451 62.7662 36.3372C62.5051 36.2174 62.2789 36.1135 62.2637 36.1061C62.2481 36.0987 62.5162 35.8151 62.8601 35.4761C64.7744 33.5873 64.3447 30.5835 62.0047 29.5033C60.8165 28.9545 60.4009 28.9154 55.7384 28.9154H51.4921V36.4604ZM59.9737 31.8687C61.2477 32.602 60.9518 34.5092 59.5025 34.9036C59.3 34.9585 58.131 35.0036 56.8918 35.0041L54.6482 35.0045V33.3072V31.6099L57.1387 31.64C59.4414 31.6678 59.655 31.6851 59.9737 31.8687ZM73.6988 32.5961C72.5919 32.7356 71.3037 33.4863 70.8079 34.2796L70.6266 34.5696L70.6261 33.6754V32.7817H69.048H67.47V38.3874V43.9931H69.0404H70.6109L70.6432 40.9725C70.6796 37.5318 70.6932 37.4664 71.5305 36.647C72.0996 36.0903 72.6823 35.8102 73.7029 35.6028L74.5214 35.4366V33.996C74.5214 33.1132 74.4835 32.5486 74.4229 32.5367C74.3689 32.5263 74.0427 32.553 73.6988 32.5961ZM80.0236 32.7342C74.5638 33.8966 74.5012 42.1859 79.9423 43.5551C81.5951 43.9713 83.2529 43.5927 84.481 42.5199L85.0294 42.0409L84.9744 42.6065C84.8345 44.0356 84.7082 44.38 84.122 44.9303C82.904 46.0744 80.0781 45.966 78.2895 44.7066C78.0239 44.5196 77.7962 44.38 77.7835 44.3974C77.7618 44.427 76.9746 45.7082 76.6564 46.2328C76.1323 47.0948 79.1747 48.2864 81.8693 48.275C84.936 48.2617 86.919 47.0032 87.7562 44.5399L88.0244 43.7516L88.0612 38.2666L88.0986 32.7817H86.562H85.0254L85.0137 33.1924C85.0072 33.418 85.0102 33.662 85.0203 33.7338C85.0774 34.1405 84.9188 34.144 84.4583 33.7461C83.3069 32.7515 81.6834 32.3808 80.0236 32.7342ZM89.8584 32.8663C89.8584 32.9128 90.1069 33.5324 90.4109 34.2435C91.7627 37.4061 92.2813 38.6135 93.4544 41.3238C94.8461 44.5404 94.8188 44.3964 94.1729 45.1174C93.6422 45.7102 92.7812 45.7696 91.7996 45.2821C91.5345 45.151 91.3042 45.057 91.287 45.0738C91.0365 45.3198 90.1564 47.319 90.2665 47.3917C91.591 48.2656 93.718 48.4888 95.0092 47.8895C96.3635 47.2606 96.715 46.6994 98.5692 42.2051C99.2494 40.5573 100.168 38.3606 100.612 37.3239C101.826 34.4845 102.348 33.2399 102.426 32.9989L102.496 32.7817H100.875H99.2535L98.8535 33.8689C98.3637 35.199 96.2671 40.6444 96.2302 40.6805C96.2161 40.6944 95.96 40.0649 95.6621 39.2811C95.3642 38.4972 94.6597 36.7143 94.0962 35.3188L93.0716 32.7817H91.4648C90.5811 32.7817 89.8584 32.8198 89.8584 32.8663ZM83.2059 35.4821C86.0409 36.6964 85.1551 41.0937 82.0758 41.0937C80.0958 41.0937 78.8001 39.576 79.1146 37.6263C79.4217 35.7236 81.3769 34.6987 83.2059 35.4821ZM60.6978 37.9435C61.7249 38.4433 61.9112 39.9798 61.0407 40.776C60.5428 41.2318 60.1408 41.2867 57.2988 41.2867H54.6482V39.4934V37.7L57.4836 37.7297C60.0378 37.7559 60.3569 37.7772 60.6978 37.9435Z" fill="white"/>
<path fill-rule="evenodd" clip-rule="evenodd" d="M25.011 14.5209C23.5021 14.9544 23.0825 17.1624 24.3181 18.1605C25.7109 19.2858 27.8267 18.3149 27.8196 16.5533C27.8136 15.0751 26.4683 14.1013 25.011 14.5209ZM17.7616 18.3486C16.1179 19.0117 16.5562 21.384 18.3261 21.4048C20.391 21.4295 20.493 18.4377 18.4317 18.3189C18.1443 18.3026 17.8429 18.3159 17.7616 18.3486ZM23.8223 19.66C22.5987 22.1609 20.4809 24.4595 18.0913 25.8808C17.9232 25.9807 17.9292 26.0109 18.1873 26.3934L18.4615 26.7997L18.8266 26.5859C20.9661 25.3344 23.5016 22.5637 24.6656 20.2058C25.1453 19.2334 25.1508 19.1285 24.7327 18.98C24.2404 18.8058 24.2409 18.8053 23.8223 19.66ZM16.7163 22.2753C16.0613 23.0942 16.024 23.1704 16.1845 23.3595C16.387 23.599 16.5532 23.5253 16.8885 23.0482C17.0642 22.7978 17.3551 22.4336 17.5343 22.2386C17.7833 21.9689 17.8313 21.862 17.7373 21.7908C17.3839 21.5226 17.2773 21.5736 16.7163 22.2753ZM19.1447 21.7126C18.9781 21.9096 20.2622 23.3328 20.5682 23.2902C20.9636 23.2348 20.853 22.8913 20.2228 22.2174C19.6143 21.5661 19.3669 21.4503 19.1447 21.7126ZM25.011 23.1368C23.8162 23.546 23.2658 24.9143 23.8233 26.0876C24.7534 28.0452 27.8216 27.3322 27.8216 25.1583C27.8216 23.6658 26.4163 22.6553 25.011 23.1368ZM15.0236 25.662C13.4885 26.2074 13.0557 28.0858 14.2061 29.2081C15.3493 30.3235 17.1915 29.943 17.8257 28.4599C18.5125 26.8536 16.7163 25.0603 15.0236 25.662ZM23.033 27.442C22.7618 27.7473 22.3957 28.1793 22.2195 28.401L21.8988 28.8048L21.1373 28.4297C19.7986 27.7701 18.5862 27.5153 18.5064 27.877C18.3569 28.552 18.3564 28.5515 19.0437 28.7291C19.9198 28.9553 20.9636 29.3517 21.1944 29.5456C21.2115 29.56 20.8187 30.1731 20.3218 30.909C18.8968 33.018 18.6725 33.5539 19.1508 33.7024C19.4194 33.786 19.4472 33.7568 20.0759 32.7132C20.3895 32.1926 20.9333 31.3865 21.2848 30.9213L21.9236 30.0761L22.1851 30.2597C22.5023 30.4824 23.7505 31.7586 24.0242 32.1401L24.2217 32.4153L24.5913 32.2426C25.2054 31.9556 24.8231 31.2519 23.3127 29.8881L22.5664 29.2136L23.2956 28.3778C24.2848 27.2431 24.2434 27.3163 24.0298 27.0852C23.7455 26.7769 23.5657 26.8413 23.033 27.442ZM24.6565 32.7167C23.2976 33.4203 23.2309 35.5482 24.5423 36.3637C25.9856 37.2604 27.8171 36.2573 27.8171 34.5699C27.8171 33.0007 26.078 31.9813 24.6565 32.7167ZM31.3231 38.4391C31.0752 38.5564 31.0671 38.5698 31.2736 38.5208C31.409 38.4886 31.5625 38.4238 31.614 38.3768C31.7417 38.2595 31.6715 38.2748 31.3231 38.4391Z" fill="white"/>
</svg>
